Coordinates
version=1
nRows=11
nColumns=42
inDegrees=yes

Units are S.I. units (second, meters, Newtons, ...)
If the header above contains a line with 'inDegrees', this indicates whether rotational values are in degrees (yes) or radians (no).

endheader
time	pelvis_tilt	pelvis_list	pelvis_rotation	pelvis_tx	pelvis_ty	pelvis_tz	hip_flexion_r	hip_adduction_r	hip_rotation_r	knee_angle_r	knee_adduction_r	knee_angle_r_beta	ankle_angle_r	subtalar_angle_r	mtp_angle_r	hip_flexion_l	hip_adduction_l	hip_rotation_l	knee_angle_l	knee_adduction_l	knee_angle_l_beta	ankle_angle_l	subtalar_angle_l	mtp_angle_l	lumbar_extension	lumbar_bending	lumbar_rotation	arm_flex_r	arm_add_r	arm_rot_r	elbow_flex_r	pro_sup_r	wrist_flex_r	wrist_dev_r	arm_flex_l	arm_add_l	arm_rot_l	elbow_flex_l	pro_sup_l	wrist_flex_l	wrist_dev_l
      0.60000000	     -3.30515959	     -1.07997531	     -1.72651121	     -0.70400597	      0.85766710	     -0.39216914	     27.37592044	     -1.04181501	     -7.99136981	     21.24879502	      6.63353211	      0.37086144	      1.52804102	     -5.83884926	     -7.82150714	     -9.40737380	     -3.42967614	      0.07055518	      4.03545034	     11.98873224	      0.07043190	     17.92421035	     -0.90624799	     -7.82150714	     -3.14516795	      2.70183608	     -0.45306940	     -5.20671169	    -16.64660630	      4.04143445	     32.32598081	     90.00000001	      0.00000000	      0.00000000	      8.33300747	    -12.46094687	    -14.23464139	     34.00645110	     90.00000001	      0.00000000	      0.00000000
      0.61000000	     -3.61453063	     -0.67403826	     -1.47274616	     -0.69235173	      0.85521127	     -0.39239002	     27.53939108	     -1.61926634	     -8.26866499	     18.46260306	      6.78733057	      0.32223321	      1.34209537	     -4.50659937	     -7.81518503	     -9.75502939	     -2.93020916	      0.15938148	      4.37093069	     11.86851647	      0.07628713	     18.25854716	     -0.73430518	     -7.81518503	     -2.65148512	      2.40243651	     -0.93731623	     -5.66882671	    -16.81685093	      3.81747532	     32.37248559	     90.00000001	      0.00000000	      0.00000000	      8.57558769	    -12.56047897	    -14.01502229	     34.21712782	     90.00000001	      0.00000000	      0.00000000
      0.62000000	     -3.35191228	     -0.77576814	     -1.10605931	     -0.68006324	      0.85351455	     -0.39210583	     26.75609031	     -1.59739165	     -8.65399682	     15.51417370	      6.79996814	      0.27077341	      1.35265242	     -3.19767018	     -7.80182546	    -10.86618920	     -3.20830474	      0.32141607	      4.51781250	     12.09011559	      0.07885070	     18.59868979	     -0.49991742	     -7.80182546	     -2.79134944	      2.59609910	     -1.44910296	     -6.04132333	    -16.91311249	      3.24104877	     32.29944032	     90.00000001	      0.00000000	      0.00000000	      8.82498238	    -12.68835526	    -13.65875261	     34.44732782	     90.00000001	      0.00000000	      0.00000000
      0.63000000	     -3.43931416	     -0.63493394	     -0.81177723	     -0.66798817	      0.85142554	     -0.39195312	     26.53811166	     -1.85001267	     -8.86487565	     13.25890041	      6.85215741	      0.23141147	      1.27671306	     -1.99099209	     -7.78972993	    -11.46130605	     -3.14651973	      0.56004199	      4.89352479	     12.15114568	      0.08540812	     18.83723344	     -0.35768516	     -7.78972993	     -2.55044733	      2.55494732	     -1.92863841	     -6.42072960	    -17.04786326	      2.86522856	     32.28173311	     90.00000001	      0.00000000	      0.00000000	      8.97725948	    -12.80488718	    -13.36528108	     34.70679834	     90.00000001	      0.00000000	      0.00000000
      0.64000000	     -3.73991714	     -0.39473777	     -0.57502997	     -0.65592535	      0.84921101	     -0.39186750	     26.66331525	     -2.23090532	     -8.95107953	     11.60933948	      6.95275300	      0.20262120	      1.14951101	     -0.94515030	     -7.78499190	    -11.74673283	     -2.92103801	      0.84864746	      5.40660549	     12.09607746	      0.09436307	     18.93913664	     -0.27760571	     -7.78499190	     -2.06291946	      2.42559233	     -2.36672561	     -6.81168769	    -17.22683528	      2.64289282	     32.30527918	     90.00000001	      0.00000000	      0.00000000	      9.03998723	    -12.87100058	    -13.16991822	     34.94278489	     90.00000001	      0.00000000	      0.00000000
      0.65000000	     -3.88683141	     -0.33801850	     -0.29425673	     -0.64370942	      0.84734718	     -0.39152785	     26.55487364	     -2.37162829	     -8.96693184	     10.26181934	      6.94472434	      0.17910253	      1.17538793	     -0.00614308	     -7.78015966	    -12.14225224	     -3.00368367	      1.22012022	      6.03417388	     12.19004840	      0.10531620	     18.95416953	     -0.28791382	     -7.78015966	     -1.76491151	      2.46626919	     -2.80767969	     -7.11353638	    -17.37502241	      2.32637696	     32.22312218	     90.00000001	      0.00000000	      0.00000000	      9.07551006	    -12.96065270	    -12.92102272	     35.23444475	     90.00000001	      0.00000000	      0.00000000
      0.66000000	     -4.02114268	     -0.24817292	     -0.37696143	     -0.63157335	      0.84558655	     -0.39082274	     26.86140369	     -2.42122061	     -8.99411541	     10.16263245	      6.87778825	      0.17737140	      1.17573479	      0.14852002	     -7.77841565	    -12.62718577	     -2.98650829	      1.40906403	      6.54163321	     12.28293887	      0.11417304	     18.86289417	     -0.20839818	     -7.77841565	     -1.53042781	      2.49801791	     -2.91098517	     -7.35132352	    -17.61863792	      2.23657481	     32.15413231	     90.00000001	      0.00000000	      0.00000000	      9.11750879	    -12.99321958	    -12.89023215	     35.39069160	     90.00000001	      0.00000000	      0.00000000
      0.67000000	     -4.23955363	     -0.43288220	      0.05237305	     -0.61914886	      0.84422810	     -0.39047717	     26.62354745	     -2.33812473	     -8.83763079	      9.21016205	      6.83992137	      0.16074765	      1.20538884	      1.02775440	     -7.77423962	    -12.65529021	     -3.38394186	      1.97245626	      7.70644229	     12.38825980	      0.13450279	     18.41623785	     -0.37515112	     -7.77423962	     -1.15354138	      2.80110433	     -3.36866700	     -7.65642399	    -17.72996595	      1.87107216	     32.01814812	     90.00000001	      0.00000000	      0.00000000	      9.03206561	    -12.93962759	    -12.58872428	     35.89669789	     90.00000001	      0.00000000	      0.00000000
      0.68000000	     -4.33567689	     -0.46095561	      0.02177295	     -0.60637785	      0.84308818	     -0.38969129	     26.64184120	     -2.25673454	     -8.59442801	      9.41951167	      6.77264818	      0.16440149	      1.15407249	      1.18115363	     -7.77253004	    -13.10615375	     -3.51217896	      2.32950821	      8.34826586	     12.46720759	      0.14570473	     18.22262196	     -0.32814509	     -7.77253004	     -0.86851129	      2.96138663	     -3.50043333	     -7.88565346	    -17.94309123	      1.75378453	     31.91816048	     90.00000001	      0.00000000	      0.00000000	      8.86561498	    -12.92448735	    -12.54316804	     35.99583065	     90.00000001	      0.00000000	      0.00000000
      0.69000000	     -4.37057351	     -1.18536910	      0.48294153	     -0.59378224	      0.84251549	     -0.38870095	     26.24419696	     -1.46399971	     -8.62021963	      9.29772912	      6.44353655	      0.16227599	      1.03544866	      1.34818916	     -7.76543289	    -12.95047803	     -4.74668749	      2.47245535	     10.29735089	     12.97896775	      0.17972268	     17.07988611	     -1.27888194	     -7.76543289	     -0.72566434	      3.81227282	     -4.07507354	     -7.85382626	    -17.97788911	      1.10090353	     31.49828577	     90.00000001	      0.00000000	      0.00000000	      8.51636272	    -12.95241169	    -12.13936360	     36.73766416	     90.00000001	      0.00000000	      0.00000000
      0.70000000	     -4.40380960	     -1.62638484	      0.57659207	     -0.58099573	      0.84211461	     -0.38761546	     26.05643725	     -0.89690936	     -8.33748786	      9.86677183	      6.25825459	      0.17220765	      0.83073655	      1.04204126	     -7.75901425	    -13.01044514	     -5.48688623	      2.75225117	     11.79084399	     13.31875790	      0.20578905	     16.03461797	     -1.86217090	     -7.75901425	     -0.56813227	      4.39313103	     -4.22510097	     -7.92370051	    -18.11898346	      0.73803906	     31.22396121	     90.00000001	      0.00000000	      0.00000000	      8.23621517	    -12.86620021	    -12.00550318	     37.14405118	     90.00000001	      0.00000000	      0.00000000
